<?xml version="1.0" encoding="iso-8859-1"?>
<!-- Generator: Adobe Illustrator 19.0.0, SVG Export Plug-In . SVG Version: 6.00 Build 0)  -->
<svg version="1.1" id="Capa_1" xmlns="http://www.w3.org/2000/svg" xmlns:xlink="http://www.w3.org/1999/xlink" x="0px" y="0px"
	 viewBox="0 0 512 512" style="enable-background:new 0 0 512 512;" xml:space="preserve">
<circle style="fill:#005C83;" cx="256" cy="256" r="256"/>
<path style="fill:#00263F;" d="M262.264,511.921c137.999-3.315,248.932-115.833,249.717-254.445L349.46,94.955L90,285.88
	l59.127,59.127l-25.502,11.503l74.073,74.072l-9.517,7.254L262.264,511.921z"/>
<path style="fill:#FFECB3;" d="M256.168,60.223c-78.111,0.27-140.832,64.754-140.832,142.865v9.157L90,285.88l25.337,3.744v42.113
	c0,22.739,18.433,41.172,41.172,41.172h31.671v64.926h130.643V328.511c46.891-23,79.177-71.205,79.177-126.957
	C398,123.332,334.454,59.952,256.168,60.223z"/>
<path style="fill:#FFD863;" d="M256.168,60.223c-0.168,0-0.334,0.007-0.502,0.008v377.605h63.156V328.511
	c46.891-23,79.177-71.205,79.177-126.957C398,123.332,334.454,59.952,256.168,60.223z"/>
<path style="fill:#00BAFF;" d="M294.552,90.503l-6.588,18.884c16.371,5.711,30.467,15.55,41.32,28.091l-14.43,10.834
	c-2.165-2.419-4.485-4.721-6.962-6.88l-13.143,15.075c9.185,8.008,15.555,18.567,18.46,30.154h-17.381
	c-5.888-16.307-21.517-27.996-39.829-27.996c-11.601,0-22.823,4.84-30.789,13.279l14.544,13.729
	c4.266-4.519,10.035-7.007,16.245-7.007c12.315,0,22.333,10.019,22.333,22.333S268.315,223.333,256,223.333
	S233.667,213.315,233.667,201h-20c0,9.299,3.021,17.902,8.123,24.895l-10.569,13.457C202.367,229.029,197,215.633,197,201
	c0-32.533,26.467-59,59-59c7.946,0,15.651,1.55,22.9,4.606l7.771-18.429C276.949,124.079,266.63,122,256,122
	c-9.347,0-18.315,1.642-26.644,4.635l-8.888-15.896C231.477,106.39,243.465,104,256,104V84c-64.514,0-117,52.486-117,117
	c0,49.504,31.343,93.845,77.994,110.337l6.666-18.856c-22.007-7.78-39.895-23.042-51.235-42.31l16.159-8.035
	C202.48,264.826,227.5,280,256,280c7.53,0,14.808-1.082,21.711-3.058l9.127,16.031C277.146,296.231,266.776,298,256,298v20
	c64.514,0,117-52.486,117-117C373,151.278,341.474,106.873,294.552,90.503z M164.106,231.972C160.791,222.163,159,211.731,159,201
	c0-33.822,17.404-63.651,43.723-81.017l8.811,15.759C190.703,149.982,177,173.918,177,201c0,7.953,1.193,15.63,3.389,22.875
	L164.106,231.972z M226.616,252.129l10.437-13.29c5.705,2.868,12.138,4.494,18.947,4.494c21.422,0,39.167-15.998,41.944-36.671
	h16.779C311.863,236.548,286.622,260,256,260C245.305,260,235.275,257.125,226.616,252.129z M305.099,284.624l-8.91-15.649
	C319.4,255.199,335,229.893,335,201c0-12.741-3.079-25.131-8.789-36.205l14.553-10.927C348.612,167.978,353,184.118,353,201
	C353,236.582,333.739,267.744,305.099,284.624z"/>
<path style="fill:#008CC3;" d="M256,142c7.946,0,15.651,1.55,22.9,4.606l7.771-18.429C276.949,124.079,266.63,122,256,122
	c-0.112,0-0.222,0.007-0.333,0.007v20.001C255.778,142.008,255.888,142,256,142z"/>
<path style="fill:#00BAFF;" d="M256,104V84c-0.111,0-0.222,0.004-0.333,0.004v20.003C255.778,104.008,255.888,104,256,104z"/>
<path style="fill:#008CC3;" d="M294.552,90.503l-6.588,18.884c16.371,5.711,30.467,15.55,41.32,28.091l-14.43,10.834
	c-2.165-2.419-4.485-4.721-6.962-6.88l-13.143,15.075c9.185,8.008,15.555,18.567,18.46,30.154h-17.381
	c-5.888-16.307-21.517-27.996-39.829-27.996c-0.111,0-0.222,0.008-0.333,0.009v20c0.111-0.001,0.222-0.008,0.333-0.008
	c12.315,0,22.333,10.019,22.333,22.333S268.315,223.333,256,223.333c-0.112,0-0.222-0.007-0.333-0.008v19.999
	c0.112,0,0.221,0.01,0.333,0.01c21.422,0,39.167-15.998,41.944-36.671h16.779C311.863,236.548,286.622,260,256,260
	c-0.112,0-0.222-0.005-0.333-0.006v20c0.111,0,0.222,0.005,0.333,0.005c7.53,0,14.808-1.082,21.711-3.058l9.127,16.031
	C277.146,296.231,266.776,298,256,298v20c64.514,0,117-52.486,117-117C373,151.278,341.474,106.873,294.552,90.503z
	 M305.099,284.624l-8.91-15.649C319.4,255.199,335,229.893,335,201c0-12.741-3.079-25.131-8.789-36.205l14.553-10.927
	C348.612,167.978,353,184.118,353,201C353,236.582,333.739,267.744,305.099,284.624z"/>
<g>
</g>
<g>
</g>
<g>
</g>
<g>
</g>
<g>
</g>
<g>
</g>
<g>
</g>
<g>
</g>
<g>
</g>
<g>
</g>
<g>
</g>
<g>
</g>
<g>
</g>
<g>
</g>
<g>
</g>
</svg>
