<svg width="162" height="162" viewBox="0 0 162 162" fill="none" xmlns="http://www.w3.org/2000/svg">
<path d="M155 81C155 40.1309 121.869 7 81 7C40.1309 7 7 40.1309 7 81C7 121.869 40.1309 155 81 155C121.869 155 155 121.869 155 81Z" fill="white"/>
<path d="M86.4444 48.9347C89.295 28.6669 85.6726 36.1947 101.666 23.9867C102.684 23.6638 102.847 24.3926 101.869 26.5082C94.6671 35.8288 91.5336 42.3818 90.8417 52.3942L86.4444 48.9347Z" fill="#273339" fill-opacity="0.95"/>
<path d="M100.393 72.6619C100.233 71.0383 99.3874 69.3778 97.57 67.668C98.7139 56.2626 90.0761 55.1402 84.2211 48.3504C86.1308 45.466 86.4813 41.081 86.2814 35.7611C89.8239 28.1595 96.8259 16.9724 94.7471 17.5444C93.8246 17.7996 89.2919 23.1687 83.8398 26.5359C79.2795 29.3527 75.2296 32.7076 73.6921 34.242C55.826 38.827 42.1696 62.4712 32.4493 103.92C44.442 99.7225 55.3247 100.276 65.9675 111.3C70.9922 117.343 73.2247 122.555 72.6066 126.928C83.9413 128.388 92.7206 133.693 98.4372 143.622C100.245 130.046 96.1094 116.678 87.1517 103.483C81.6166 98.4987 79.1135 93.966 79.1196 89.8085C79.9991 84.5994 82.5975 83.6399 86.4998 85.9032C91.1646 89.3842 95.4759 91.9303 99.0891 92.6314C101.654 92.2286 103.988 92.0164 105.602 92.6314C111.193 93.4648 116.365 93.7784 116.491 90.6788C116.611 87.8743 107.481 79.8392 100.393 72.6619ZM87.041 67.1545C85.4389 62.6926 82.5545 59.0855 80.3435 56.3918C82.4315 58.2614 84.6732 59.8912 87.822 60.4631C93.0927 61.3334 94.3412 61.7947 95.888 71.0199C93.3479 69.1164 90.2298 67.8372 87.041 67.1545V67.1545Z" fill="#273339" fill-opacity="0.95"/>
<path d="M85.7402 61.2104C86.9303 63.1385 87.7944 64.8482 87.8005 65.986C90.0611 66.5338 92.2222 67.4313 94.2059 68.6459C94.0828 66.9325 93.6219 65.2603 92.8498 63.7258C91.466 67.9294 90.9401 66.4934 90.7864 62.5757C89.2166 61.7771 87.4985 61.3122 85.7402 61.2104V61.2104Z" fill="#273339" fill-opacity="0.95"/>
<path d="M81.0999 150.492C119.485 150.492 150.603 119.375 150.603 80.9892C150.603 42.6039 119.485 11.4865 81.0999 11.4865C42.7147 11.4865 11.5972 42.6039 11.5972 80.9892C11.5972 119.375 42.7147 150.492 81.0999 150.492Z" stroke="#273339" stroke-opacity="0.95" stroke-width="22" stroke-miterlimit="10"/>
</svg>
