<svg id="Capa_1" enable-background="new 0 0 498.56 498.56" height="512" viewBox="0 0 498.56 498.56" width="512" xmlns="http://www.w3.org/2000/svg"><g><path d="m423.438 173.523 60.053-2.934c9.38-10.53 15.07-24.39 15.07-39.59 0-32.9-26.67-59.57-59.58-59.57-32.9 0-59.57 26.67-59.57 59.57 0 15.42 5.86 29.47 15.48 40.06z" fill="#99e6fc"/><g><path d="m163.677 271.195c-2.241 0-4.457-.999-5.935-2.907l-42.405-54.747-25.229-30.536c-.056-.067-.11-.136-.164-.205l-36.314-47.224c-2.525-3.284-1.91-7.992 1.374-10.518 3.282-2.525 7.992-1.911 10.517 1.373l36.234 47.12 25.222 30.526c.05.061.1.122.147.185l42.477 54.84c2.537 3.274 1.938 7.985-1.336 10.522-1.367 1.058-2.984 1.571-4.588 1.571z" fill="#e5e1e5"/></g><path d="m38.244 175.779 55.422-5.19 10.004.47c9.62-10.59 15.48-24.64 15.48-40.06 0-32.9-26.67-59.57-59.57-59.57-32.91 0-59.58 26.67-59.58 59.57 0 15.2 5.69 29.06 15.07 39.59z" fill="#99e6fc"/><g><path d="m408.625 182.788-25.771 31.18-35.377 37.975c-1.478 1.586-3.481 2.388-5.489 2.388-1.831 0-3.666-.666-5.111-2.013-3.031-2.823-3.199-7.568-.375-10.6l35.225-37.812 25.075-30.349 29.703-38.779c2.519-3.288 7.227-3.911 10.515-1.394 3.289 2.519 3.912 7.227 1.394 10.515z" fill="#e5e1e5"/></g><g><path d="m249.28 195.216c-4.142 0-7.5-3.357-7.5-7.5v-108.448c0-4.143 3.358-7.5 7.5-7.5s7.5 3.357 7.5 7.5v108.448c0 4.143-3.358 7.5-7.5 7.5z" fill="#e5e1e5"/></g><g><circle cx="248.78" cy="325.454" fill="#a79ba7" r="172.841"/><path d="m248.78 190.579c74.49 0 134.88 60.38 134.88 134.88 0 39.62-17.09 75.25-44.29 99.92-23.94 21.72-55.72 34.95-90.59 34.95s-66.65-13.23-90.59-34.95c-27.2-24.67-44.29-60.3-44.29-99.92 0-74.5 60.39-134.88 134.88-134.88z" fill="#f9f7f8"/><g id="XMLID_561_"><g><path d="m336.31 403.769c-3.36-23.7-13.26-45.99-28.58-64.39l-.008-.017c16.696-15.701 27.138-37.976 27.138-62.703 0-47.54-38.54-86.08-86.08-86.08s-86.08 38.54-86.08 86.08c0 24.729 10.444 47.007 27.143 62.708l-.013.012c-15.32 18.4-25.22 40.69-28.58 64.39l-3.06 21.61c23.94 21.72 55.72 34.95 90.59 34.95s66.65-13.23 90.59-34.95z" fill="#99e6fc"/><path d="m201.096 434.636c-7.137-5.187-10.718-13.977-9.481-22.713l1.155-8.154c3.36-23.7 13.26-45.99 28.58-64.39l.013-.012c-16.699-15.701-27.143-37.979-27.143-62.708 0-42.154 30.31-77.208 70.32-84.615-5.112-.947-10.374-1.465-15.76-1.465-47.54 0-86.08 38.54-86.08 86.08 0 24.729 10.444 47.007 27.143 62.708l-.013.012c-15.32 18.4-25.22 40.69-28.58 64.39l-3.06 21.61c23.94 21.72 55.72 34.95 90.59 34.95 5.332 0 10.59-.313 15.76-.915-23.529-2.738-45.211-11.528-63.444-24.778z" fill="#62dbfb"/></g></g><g><path d="m248.78 340.24c-22.168 0-42.393-11.297-54.1-30.219-2.179-3.522-1.09-8.145 2.432-10.324 3.523-2.18 8.144-1.091 10.324 2.432 8.953 14.472 24.409 23.111 41.344 23.111s32.391-8.64 41.344-23.111c2.179-3.522 6.801-4.611 10.324-2.432s4.611 6.802 2.432 10.324c-11.707 18.922-31.932 30.219-54.1 30.219z" fill="#918291"/></g><g><path d="m215.048 270.553c-4.142 0-7.5-3.357-7.5-7.5v-8.724c0-4.143 3.358-7.5 7.5-7.5s7.5 3.357 7.5 7.5v8.724c0 4.143-3.358 7.5-7.5 7.5z" fill="#918291"/></g><g><path d="m283.512 270.553c-4.142 0-7.5-3.357-7.5-7.5v-8.724c0-4.143 3.358-7.5 7.5-7.5s7.5 3.357 7.5 7.5v8.724c0 4.143-3.358 7.5-7.5 7.5z" fill="#918291"/></g><path d="m222.439 97.031 54.323 1.244 16.608 1.623c9.62-10.59 15.48-24.64 15.48-40.06 0-32.9-26.67-59.57-59.57-59.57s-59.57 26.67-59.57 59.57c0 15.2 5.69 29.06 15.06 39.59z" fill="#99e6fc"/><path d="m290.94 89.819c-.86-4.52-2.39-8.86-4.5-12.89-2.12-4.03-4.82-7.75-8.04-11.04l-.001-.001c6.146-6.963 9.882-16.104 9.882-26.122 0-21.816-17.685-39.502-39.502-39.502s-39.502 17.686-39.502 39.502c0 10.018 3.736 19.158 9.882 26.122l-.001.001c-6.44 6.57-10.81 14.9-12.54 23.93l-1.85 9.61c10.91 12.26 26.81 19.99 44.51 19.99 17.48 0 33.2-7.53 44.09-19.52z" fill="#fef48b"/><path d="m227.887 101.371c-1.139-1.171-1.638-2.824-1.329-4.428l1.372-7.125c1.73-9.03 6.1-17.36 12.54-23.93l.001-.001c-6.146-6.963-9.882-16.104-9.882-26.122 0-18.123 12.209-33.384 28.847-38.036-5.024-1.405-10.443-1.865-16.072-1.096-18.243 2.494-32.52 17.594-33.96 35.95-.883 11.257 2.966 21.609 9.757 29.304l-.001.001c-6.44 6.57-10.81 14.9-12.54 23.93l-1.85 9.61c10.91 12.26 26.81 19.99 44.51 19.99 3.639 0 7.196-.344 10.655-.969-12.459-2.253-23.577-8.369-32.048-17.078z" fill="#fef056"/><path d="m101.24 160.979c-1.74-9.029-6.099-17.357-12.547-23.927 6.149-6.964 9.887-16.106 9.887-26.123 0-21.82-17.69-39.5-39.5-39.5-21.82 0-39.51 17.68-39.51 39.5 0 10.017 3.739 19.158 9.888 26.123-6.449 6.57-10.808 14.899-12.548 23.927l-1.84 9.61c10.9 12.26 26.8 19.99 44.51 19.99 17.48 0 33.2-7.53 44.09-19.52z" fill="#fd8087"/><path d="m36.855 172.468c-1.097-1.132-1.583-2.725-1.286-4.273l1.382-7.216c1.513-7.852 5.007-15.174 10.133-21.27 1.309-1.557 1.358-3.822.155-5.462-4.793-6.536-7.628-14.594-7.628-23.318 0-18.356 12.521-33.78 29.488-38.215-4.429-1.158-9.159-1.573-14.052-1.083-18.72 1.874-33.706 17.052-35.324 35.795-.983 11.38 2.877 21.857 9.736 29.625-6.449 6.57-10.808 14.899-12.548 23.927l-1.84 9.61c10.9 12.26 26.8 19.99 44.51 19.99 3.414 0 6.757-.296 10.014-.847-12.753-2.162-24.124-8.372-32.74-17.263z" fill="#fe646f"/><path d="m481.65 160.979c-.87-4.52-2.39-8.86-4.51-12.89-2.11-4.029-4.819-7.749-8.038-11.038 6.147-6.964 9.884-16.105 9.884-26.123 0-21.816-17.685-39.502-39.502-39.502s-39.502 17.686-39.502 39.502c0 10.02 3.737 19.161 9.885 26.125-6.448 6.569-10.807 14.898-12.547 23.927l-2.43 10.08c10.89 11.99 26.61 19.52 44.09 19.52 17.71 0 33.61-7.73 44.51-19.99z" fill="#ade194"/><path d="m419.85 174.76c-2.316-2.141-3.263-5.388-2.524-8.455l1.284-5.327c1.517-7.873 5.026-15.214 10.175-21.32 1.286-1.525 1.334-3.751.152-5.358-4.816-6.545-7.665-14.624-7.665-23.373 0-18.126 12.214-33.39 28.857-38.039-5.024-1.403-10.442-1.862-16.07-1.092-18.241 2.497-32.515 17.599-33.952 35.954-.881 11.257 2.969 21.608 9.76 29.301-6.448 6.569-10.807 14.898-12.547 23.927l-2.43 10.08c10.89 11.99 26.61 19.52 44.09 19.52 3.637 0 7.191-.343 10.647-.967-11.377-2.053-21.634-7.324-29.777-14.851z" fill="#97da7b"/></g></g></svg>